# xmcd CD database file
# Copyright (C) 1993-1998 Ti Kan
# 
# Track frame offsets:
#     182
#     16537
#     35265
#     49537
#     67662
#     85757
#     99725
#     116722
#     134155
#     153487
#     173397
#     185790
#     213895
#     229265
#     249510
#     261982
# 
# Disc length: 3875 seconds
# 
# Revision: 1
# Processed by: cddbd v1.4b41PL1 Copyright (c) Steve Scherf et al.
# Submitted via: DiscPlay 4.0.4
# 
DISCID=cf0f2110
DTITLE=Nina Simone - Nina Simone
DYEAR=1900
DGENRE=
TTITLE0=My Baby Just Cares For Me
TTITLE1=I Loves You Porgy
TTITLE2=Don't Smoke In Bed
TTITLE3=Mood Indigo
TTITLE4=For All We Know
TTITLE5=Central Park Blues
TTITLE6=You'll Never Walk Alone
TTITLE7=Plain Gold Ring
TTITLE8=Little Girl Blue
TTITLE9=Four Women
TTITLE10=Don't Let Me Be Misunderstood
TTITLE11=Ain't Got No - I Got Life
TTITLE12=Backlash Blues
TTITLE13=No Opportunity Necessary, No Experience Needed
TTITLE14=Ain't No Use
TTITLE15=To Be Toung, Glfted And Black
EXTD=
EXTT0=
EXTT1=
EXTT2=
EXTT3=
EXTT4=
EXTT5=
EXTT6=
EXTT7=
EXTT8=
EXTT9=
EXTT10=
EXTT11=
EXTT12=
EXTT13=
EXTT14=
EXTT15=
PLAYORDER=
